<?xml version="1.0" encoding="utf-8"?>
<!-- Generator: Adobe Illustrator 22.0.0, SVG Export Plug-In . SVG Version: 6.00 Build 0)  -->
<svg version="1.1" id="Ebene_1" xmlns="http://www.w3.org/2000/svg" xmlns:xlink="http://www.w3.org/1999/xlink" x="0px" y="0px"
	 viewBox="0 0 102.3 102.5" style="enable-background:new 0 0 102.3 102.5;" xml:space="preserve">
<style type="text/css">
	.st0{fill:none;stroke:#FFFFFF;stroke-miterlimit:10;}
	.st1{fill:#2d4052;}
	.st2{fill:#FFFFFF;}
</style>
<circle class="st0" cx="52.8" cy="52.2" r="40.8"/>
<circle class="st1" cx="52.8" cy="52.2" r="36.9"/>
<polygon class="st2" points="85.4,30.4 85.4,68.7 78.6,68.7 61.4,41.6 61.4,68.7 55,68.7 55,30.4 61.8,30.4 78.9,57.5 78.9,30.4 "/>
<path class="st2" d="M26.4,68.7H20V30.3h14.9c0.4,0,3.7,0.1,7.3,1.8c5,2.4,7.6,7.1,7.6,13.1s-2.7,10.7-7.6,13.1l-0.5,0.4l7,10H41
	c-6-8.5-6.1-8.5-6.2-8.5h-8.5L26.4,68.7L26.4,68.7z M26.4,53.8h8.5c0.1,0,2.4-0.1,4.6-1.2c2.6-1.4,3.9-3.7,3.9-7.3
	c0-3.6-1.4-6-4.1-7.4c-2.2-1-4.4-1.1-4.4-1.1h-8.5V53.8z"/>
<g>
	<g>
		<path class="st2" d="M34.1,74.1h0.9l0.9,4.4l1.1-4.4h0.8l1.1,4.4l0.8-4.5h0.9l-1.3,6.2h-0.8l-1.1-4.6l-1.1,4.6h-0.9L34.1,74.1z"/>
		<path class="st2" d="M41.7,74.1h3.1v0.6h-2v2h1.6v0.6h-1.6v2.3h2v0.6h-3.2V74.1z"/>
		<path class="st2" d="M45.8,74.1h1.9c0.7,0,1.3,0.1,1.6,0.4s0.5,0.6,0.5,1.2c0,0.8-0.4,1.2-1.2,1.3c0.5,0.1,0.8,0.3,1,0.5
			s0.3,0.6,0.3,1c0,0.6-0.2,1-0.5,1.3c-0.3,0.3-0.9,0.5-1.6,0.5h-2.2V74.1z M47.6,76.6c0.5,0,0.8-0.1,1-0.2c0.2-0.2,0.3-0.4,0.3-0.8
			c0-0.3-0.1-0.5-0.2-0.6c-0.1-0.1-0.3-0.2-0.5-0.2c-0.2,0-0.5-0.1-1-0.1h-0.3v1.9H47.6z M47.7,79.6c0.3,0,0.6,0,0.8-0.1
			c0.2-0.1,0.3-0.2,0.4-0.4c0.1-0.2,0.1-0.4,0.1-0.7c0-0.4-0.1-0.7-0.3-0.9c-0.2-0.2-0.6-0.3-1-0.3h-0.7v2.3H47.7z"/>
		<path class="st2" d="M58,74.1h1.8c0.9,0,1.5,0.2,1.9,0.5c0.4,0.3,0.5,0.8,0.5,1.4v2.3c0,0.7-0.2,1.2-0.5,1.5
			c-0.4,0.3-0.9,0.5-1.8,0.5H58V74.1z M59.8,79.6c0.4,0,0.7-0.1,0.9-0.2c0.2-0.1,0.3-0.3,0.3-0.5c0-0.2,0.1-0.5,0.1-0.9v-2
			c0-0.4,0-0.6-0.1-0.8c-0.1-0.2-0.2-0.3-0.4-0.4c-0.2-0.1-0.5-0.1-0.8-0.1h-0.6v4.9H59.8z"/>
		<path class="st2" d="M63.3,74.1h3.1v0.6h-2v2H66v0.6h-1.6v2.3h2v0.6h-3.2V74.1z"/>
		<path class="st2" d="M66.9,74.1H68l1.3,4.5l1.2-4.5h1l-1.8,6.2h-1L66.9,74.1z"/>
	</g>
	<path class="st2" d="M54.1,75.9v1H53v-1L54.1,75.9z"/>
	<g>
		<path class="st2" d="M54.1,78.3v1H53v-1L54.1,78.3z"/>
		<path class="st2" d="M54.1,79l0,0.6l-0.3,0l0-0.6L54.1,79z"/>
	</g>
</g>
</svg>
